<svg xmlns="http://www.w3.org/2000/svg" viewBox="0 0 877.03 243.76"><defs><style>.cls-1{fill:#ccc;}.cls-2{fill:#e6e6e6;}.cls-3{fill:#fff;}</style></defs><g id="Warstwa_2" data-name="Warstwa 2"><g id="Layer_1" data-name="Layer 1"><path class="cls-1" d="M264.63,20.33l-29-3.81a32,32,0,0,0-16.22,2.67l-134,62.86a1.7,1.7,0,0,0,1.27,3.14L265,23.62l.11,0a1.7,1.7,0,0,0-.44-3.25"/><path class="cls-1" d="M206.23.07,4,25.27a1.82,1.82,0,0,0-.51.13h0a1.65,1.65,0,0,0-.81.75h0a1.56,1.56,0,0,0-.15.39h0a1.62,1.62,0,0,0,0,.76,1.35,1.35,0,0,0,.11.34,1.68,1.68,0,0,0,.49.63,2,2,0,0,0,.47.27h0a2.11,2.11,0,0,0,.45.1L38.43,32a1.7,1.7,0,0,0,.45,0L206.73,3.43a1.66,1.66,0,0,0,.38-.11,1.7,1.7,0,0,0-.88-3.25"/><path class="cls-1" d="M215.81,145.51l-109.36,8.64a1.7,1.7,0,0,0,0,3.38l34.83,3.38a1.61,1.61,0,0,0,.44,0l74.53-12a1.6,1.6,0,0,0,.39-.11,1.7,1.7,0,0,0-.8-3.26"/><path class="cls-2" d="M104.63,138.88h0a5.44,5.44,0,0,1-4-2.64l-17.79-28a1.7,1.7,0,0,0-1.27-.78L47,104a4,4,0,0,0-3.74,6.08l15.3,24.11a8.88,8.88,0,0,0,6.57,4.21l39.09,3.82h0a1.73,1.73,0,0,0,.82-.13,1.7,1.7,0,0,0-.5-3.26"/><path class="cls-2" d="M158.56,180.05a5.55,5.55,0,0,1-4.07-2.67l-11.93-19.06a1.69,1.69,0,0,0-1.28-.79l-34.54-3.38a4,4,0,0,0-3.74,6.06l9.48,15.13a8.88,8.88,0,0,0,6.61,4.27l39.14,3.82a1.67,1.67,0,0,0,.83-.12,1.73,1.73,0,0,0,1-1.4,1.7,1.7,0,0,0-1.53-1.86"/><path class="cls-2" d="M167.54,240.35a.56.56,0,0,1-.29-.25l-25.07-39.24a1.69,1.69,0,0,0-1.26-.77l-34.49-3.38a4,4,0,0,0-3.73,6.09l22.55,35.29a3.78,3.78,0,0,0,2.85,1.81L167,243.7a1.77,1.77,0,0,0,.83-.12,1.73,1.73,0,0,0,1-1.3,1.71,1.71,0,0,0-1.32-1.93"/><path class="cls-2" d="M69.43,70.74h0a5.52,5.52,0,0,1-4-2.57L40,29.36a1.71,1.71,0,0,0-1.26-.76L4.36,25.28A4,4,0,0,0,.65,31.4L23.47,66.21A8.91,8.91,0,0,0,30,70.3l39.1,3.82h0a1.73,1.73,0,0,0,.82-.13,1.7,1.7,0,0,0-.5-3.26"/><path class="cls-3" d="M267.18,21.49a3.94,3.94,0,0,0-4.09-.93L85.77,81.9h0A6.24,6.24,0,0,0,87.61,94l28.17.87L236,100.69a8.66,8.66,0,0,0,4.82-1.24,10.65,10.65,0,0,0,4.45-5.59l22.88-68.29a3.92,3.92,0,0,0-1-4.08"/><path class="cls-3" d="M194.09,114.37l-111.9-6.91a2.06,2.06,0,0,0-1.87,3.16l17.42,27.44a8.6,8.6,0,0,0,8.76,4.12l88.28-15.44a7,7,0,0,0,1.46-.43,6.25,6.25,0,0,0-2.15-11.94"/><path class="cls-3" d="M218.26,146.46a2.8,2.8,0,0,0-2.58-.93l-74.83,12a1.68,1.68,0,0,0-1.28,1,1.73,1.73,0,0,0,.11,1.61l11.93,19.06a8.71,8.71,0,0,0,8,4.27l43.67-3.23a8.35,8.35,0,0,0,2.68-.65,8.54,8.54,0,0,0,1.13-.57,10.65,10.65,0,0,0,4.44-5.62l7.3-24.24a2.81,2.81,0,0,0-.58-2.68"/><path class="cls-3" d="M182.61,204.34a2.82,2.82,0,0,0-2.15-1.26l-39.58-3a1.7,1.7,0,0,0-1.56,2.61l25.06,39.23a3.76,3.76,0,0,0,4.66,1.53,4.52,4.52,0,0,0,.49-.25,4.3,4.3,0,0,0,1.84-2.32l11.56-34.08a2.81,2.81,0,0,0-.32-2.47"/><path class="cls-3" d="M211.89,3.58a5,5,0,0,0-5.73-3.5L38.31,28.62a1.69,1.69,0,0,0-1.14,2.6L62.6,70a8.54,8.54,0,0,0,10.59,3.46l.28-.13L209.18,9.73a5,5,0,0,0,2.71-6.15"/><path class="cls-3" d="M322.6,204.63c2-14.77,4-28.64,5.89-42.5l.21-1.73-.94,1.26-20,26.92L295.5,161.9l-.69-1.56-.18,1.54q-3,21.21-6.09,42.47h-30c.8-6,1.53-11.74,2.33-17.45,2.64-18.78,5.49-37.54,7.89-56.35,1.15-9.07,6.85-14.05,15.44-13.5l17.49.11,1.49,0q5,13.28,10.66,28.25l18.58-28.1H365l-.41,3.07q-3.74,26.65-7.5,53.31c-.87,6.09-1.81,12.17-2.64,18.27-1.15,8.39-5.66,12.53-14,12.61-5.79,0-11.59,0-17.87,0"/><path class="cls-3" d="M604.14,204.54c-6.45-14.54-12.8-28.88-19.15-43.22l-.56-1.33-.18,1.35c-2,14.23-4.11,28.46-6.2,43H548.46l.71-4.88q3.75-26.92,7.57-53.83c.82-5.76,1.61-11.52,2.55-17.25,1.19-7.24,5.7-11.12,13-11.22,6-.09,20.58,0,20.58,0,5.73,13.87,11.64,28.08,17.46,42.15l.77,1.92.33-2.06c1.95-13.77,3.9-27.82,5.85-41.52l29.51,0c-1.09,8.06-2.17,16.13-3.3,24.2q-3.37,24.12-6.82,48.24a35.6,35.6,0,0,1-1,5.54c-1.57,5-5.12,8.38-10.32,8.74-7,.48-14,.12-21.2.12"/><path class="cls-3" d="M454.87,204.42c4-28.65,8-57.83,12.08-86.63,9-1.79,23.46-2.32,26.39-2.43,1.51-.06,15.16-.15,22.47,1.9A61.64,61.64,0,0,1,530,122.93c10.69,6.2,16.21,15.9,17.14,28.15a57.5,57.5,0,0,1-1.44,18.85,42.53,42.53,0,0,1-21.48,27.5c-8.08,4.46-16.85,6.74-25.88,8-13.87,1.87-27.73,1-41.55-.74Zm41.32-64.89c-1.94,14.39-4.21,27.92-5.78,41.95,8.87.34,16-1.57,20.38-9.18A30.23,30.23,0,0,0,514,149.52c-1.25-5.1-4.47-8.47-9.66-9.52-2.46-.5-5.06-.32-8.19-.47"/><path class="cls-3" d="M724.4,118c-1.11,7.66-2.23,15.42-3.43,23.66H683.48c-.24,2.58-.44,4.69-.69,7.36H715l-3,23.07H679.36c-.39,2.76-.7,4.94-1.09,7.75h37c-.25,6.4-.63,12.19-2.79,17.54-1.86,4.62-5.85,7.07-11,7.18-4.64.1-9.27,0-13.91,0H643.42c.64-5.12,1.17-9.8,1.83-14.47q4-28.46,8-56.88c.29-2,.56-4.07,1-6.08,1.21-5.71,5.69-10,11.5-10,19.22-.13,39.56,0,58.78.05Z"/><path class="cls-3" d="M419.89,204.53c-.65-4.79-1.25-9.3-1.9-14.1H393.47c-1.78,4.43-3.62,9-5.57,13.87H355.47l1.86-3.73c11.62-24.58,23.38-49.09,34.8-73.76,3.23-7,8-9.8,15.69-9.77l22.13.07h5.24c1.63,8.35,3.18,16.2,4.69,24.06q4.42,22.91,8.79,45.81a28.58,28.58,0,0,1,.63,5.59c-.07,6.13-4.57,11.46-10.64,11.87s-12.29.09-18.77.09m-4.37-35.2c-1-8.53-1.94-16.5-2.87-24.48l-.3-1.9-.68,1.79-9.8,24.59Z"/><path class="cls-3" d="M719.32,199.73c1.58-4.54,2.76-8.65,4.43-12.54,2.65-6.15,8.49-8.8,15.34-6.92a50.78,50.78,0,0,0,16.79,1.9c2-.12,4.21.07,5.41-2.13.29-2.06-1.13-2.78-2.64-3.23-2.63-.76-5.34-1.26-7.95-2.06a91.26,91.26,0,0,1-11.65-4c-7.27-3.38-11.11-9.35-11.9-17.32-1.56-15.65,6-28.31,20.51-34.34a52.67,52.67,0,0,1,22.15-3.77,105.41,105.41,0,0,1,25.83,4.24,21.51,21.51,0,0,1,2.58,1.14c-2.74,7.87-5.41,15.58-8.13,23.4-5.13-1.31-10-2.86-15-3.72a71.18,71.18,0,0,0-11.79-.58c-2.31,0-2.31.19-5.06,3.06,1.58,1,3,2.28,4.56,2.85,2.73,1,5.64,1.43,8.45,2.19,2.31.63,4.63,1.26,6.87,2.11,10.53,4,15.79,11.48,16.09,22.7.34,13.2-6.13,23.48-18.21,29a53.78,53.78,0,0,1-18.42,4.37,80.33,80.33,0,0,1-38.29-6.39"/><path class="cls-3" d="M794.9,199.67c1.37-4.09,2.45-7.67,3.78-11.15,2.77-7.25,8.49-10.27,16-8.23a50.11,50.11,0,0,0,17.8,1.79c1.86-.16,3.87-.24,4.35-2.74-.77-2.67-3.28-2.77-5.32-3.35-3.28-1-6.69-1.47-10-2.4-14.84-4.18-21.71-13.87-18.29-31.48,2-10.27,8.41-17.37,17.7-22,7.87-3.89,16.32-5.13,25-4.78a107.55,107.55,0,0,1,24.79,4.08,25.92,25.92,0,0,1,3,1.29c-2.75,7.9-5.44,15.6-8.16,23.39-5-1.29-9.68-2.82-14.48-3.62a70.8,70.8,0,0,0-12.28-.64c-1.51,0-3,.93-4.25,1.34-.37,3.31,1.67,3.9,3.39,4.44,2.93.92,6,1.43,8.94,2.32a71.94,71.94,0,0,1,9.69,3.34c7.8,3.63,12,10,12.9,18.45,1.67,15.26-5.59,27.13-19.92,32.82A58.44,58.44,0,0,1,829,206.36a79.57,79.57,0,0,1-29.26-4.72c-1.42-.52-2.8-1.15-4.79-2"/><path class="cls-3" d="M857.29,83.55l-7.24-.07,1.19-7.3L877,76.1l-1.09,7.44-8.23.06-2.4,19.07H854.73c.44-3.11,2.56-19.12,2.56-19.12"/><path class="cls-3" d="M563.31,102.62c1.22-8.65,2.43-17.46,3.65-26.16a52,52,0,0,1,8-.73,21.47,21.47,0,0,1,6.78.58A18.13,18.13,0,0,1,586,78a10.16,10.16,0,0,1,5.18,8.49,17.28,17.28,0,0,1-.44,5.69,12.81,12.81,0,0,1-6.48,8.31,22.23,22.23,0,0,1-7.81,2.4,48.38,48.38,0,0,1-12.55-.22ZM575.79,83c-.59,4.34-1.28,8.43-1.75,12.66,2.68.11,4.84-.47,6.15-2.77a9.13,9.13,0,0,0,1-6.88,3.6,3.6,0,0,0-2.91-2.87,16.81,16.81,0,0,0-2.47-.14"/><path class="cls-3" d="M664,76.16h10.7c-.7,5.4-1.38,10.63-2.08,16.06a2,2,0,0,0,3.95.62c1-5.52,1.7-11,2.73-16.59h10.54c-.25,1.92-.41,3.7-.72,5.45-.77,4.36-1.12,8.75-2.15,13a10.45,10.45,0,0,1-8.55,8,23.34,23.34,0,0,1-8.5.26c-5-.61-8.9-3.78-8.47-8.79.5-5.92,1.64-11.79,2.55-18"/><path class="cls-3" d="M783.28,77.3c-1.15,2.62-2.11,4.77-3.15,7.13-3.94-.27-8.5-1.74-11.5,1.88l0,.06c-2.67,3.29-1.26,8.09,2.95,8.53a35.15,35.15,0,0,0,6.6-.16l-.47,7.33a22.91,22.91,0,0,1-13.85.22c-5.32-1.72-7.13-6-7.39-10.68,0-8.58,4.69-14.23,13.76-16,4.33-.82,8.44-.06,13.1,1.64"/><path class="cls-3" d="M495.19,86.2c-.3-3.29-1.64-6.46-4.6-8.18-10.57-6.12-25.94.49-26.19,13.43-.26,9.91,9.27,13.16,17.62,11.78a15.87,15.87,0,0,0,13.17-17m-11.65,5.32c-1.32,2.88-4,4.19-6.07,3.32s-2.7-4.07-1.38-7,3.29-4.6,6.16-3.49c2.71,1,2.61,4.23,1.29,7.12"/><path class="cls-3" d="M368.53,103c1.46-9,2.83-17.92,4.22-26.53,0,0,10.93-.14,14.77.09A11.37,11.37,0,0,1,395,79.87a7.23,7.23,0,0,1-1,10.59,10.29,10.29,0,0,1-2.55,1.17c3,2.67,3.82,7.3,3.56,11.33l-9.79.13c0-2.36-.18-5.63-2.49-7.21a4.11,4.11,0,0,0-2.46-.91l-1.4,8.06Zm12.86-15.14c3.27,0,4.6-.74,4.58-2.27a2,2,0,0,0-1.7-2c-.74,0-1.56-.08-2.32-.08Z"/><path class="cls-3" d="M294,76.54c-2.54-.41-15.87-.07-15.87-.07-1.38,8.66-2.76,17.31-4.23,26.55h10l1.45-7.09a52.59,52.59,0,0,0,5.3-.07c3.33-.4,6-1.41,8.19-4,3.93-4.54,2.53-14.16-4.86-15.36m-2.56,9.08c-.53,2.26-1.31,2.26-4.58,2.26l.56-4.37c.76,0,1.58,0,2.32.08a1.79,1.79,0,0,1,1.7,2"/></g></g></svg>